<svg width="18" height="12" viewBox="0 0 18 12" fill="none" xmlns="http://www.w3.org/2000/svg">
<path opacity="0.3" d="M17.325 4.00701C15.246 1.4641 12.204 0 9 0C7.398 0 5.841 0.364273 4.419 1.04378C2.997 1.7303 1.719 2.73205 0.675 4.00701C-0.225 5.10683 -0.225 6.89317 0.675 7.993C2.754 10.5429 5.796 12 9 12C10.602 12 12.159 11.6357 13.581 10.9562C15.003 10.2697 16.281 9.26795 17.325 7.993C18.225 6.90018 18.225 5.10683 17.325 4.00701ZM9 8.83363C6.984 8.83363 5.364 7.56567 5.364 6.0035C5.364 4.44133 6.984 3.17338 9 3.17338C11.016 3.17338 12.636 4.44133 12.636 6.0035C12.636 7.56567 11.016 8.83363 9 8.83363Z" fill="white"/>
<path opacity="0.3" d="M9.05571 4.58179C8.26675 4.58179 7.62352 5.24451 7.62352 6.06256C7.62352 6.87543 8.26675 7.53815 9.05571 7.53815C9.84468 7.53815 10.4929 6.87543 10.4929 6.06256C10.4929 5.24969 9.84468 4.58179 9.05571 4.58179Z" fill="white"/>
</svg>
