<svg width="11" height="17" viewBox="0 0 11 17" fill="none" xmlns="http://www.w3.org/2000/svg">
<path opacity="0.3" d="M4.87402 16.5156C7.07861 16.5156 8.86572 14.7432 8.86572 12.5386C8.86572 11.4033 8.41162 10.4072 7.53271 9.60156C7.37891 9.4624 7.34229 9.37451 7.34229 9.16943L7.35693 2.73877C7.35693 1.11279 6.35352 0.0214844 4.87402 0.0214844C3.38721 0.0214844 2.38379 1.11279 2.38379 2.73877L2.39111 9.16943C2.39111 9.37451 2.36182 9.4624 2.20068 9.60156C1.32178 10.3999 0.867676 11.4033 0.867676 12.5386C0.867676 14.7432 2.65479 16.5156 4.87402 16.5156ZM4.87402 15.2632C3.35791 15.2632 2.13477 14.0327 2.13477 12.5239C2.13477 11.5938 2.56689 10.7808 3.34326 10.2681C3.56299 10.1143 3.65088 9.98242 3.65088 9.68213V2.79004C3.65088 1.87451 4.14893 1.28857 4.87402 1.28857C5.5918 1.28857 6.08252 1.87451 6.08252 2.79004V9.68213C6.08252 9.98242 6.17041 10.1143 6.39746 10.2681C7.1665 10.7808 7.60596 11.5938 7.60596 12.5239C7.60596 14.0327 6.38281 15.2632 4.87402 15.2632ZM8.74121 2.87061H10.3525C10.6235 2.87061 10.8066 2.66553 10.8066 2.42383C10.8066 2.18213 10.6235 1.97705 10.3525 1.97705H8.74121C8.47021 1.97705 8.28711 2.18213 8.28711 2.42383C8.28711 2.66553 8.47021 2.87061 8.74121 2.87061ZM8.74121 4.90674H10.3525C10.6235 4.90674 10.8066 4.70166 10.8066 4.45996C10.8066 4.21826 10.6235 4.01318 10.3525 4.01318H8.74121C8.47021 4.01318 8.28711 4.21826 8.28711 4.45996C8.28711 4.70166 8.47021 4.90674 8.74121 4.90674ZM4.8667 14.2744C5.84082 14.2744 6.62451 13.4907 6.62451 12.5166C6.62451 11.8354 6.24365 11.2788 5.67969 10.9785C5.44531 10.8467 5.37207 10.7588 5.37207 10.4072V6.63525C5.37207 6.27637 5.14502 6.04932 4.8667 6.04932C4.58838 6.04932 4.36865 6.27637 4.36865 6.63525V10.4072C4.36865 10.7588 4.28809 10.8467 4.05371 10.9785C3.49707 11.2788 3.11621 11.8354 3.11621 12.5166C3.11621 13.4907 3.8999 14.2744 4.8667 14.2744ZM8.74121 6.94287H10.3525C10.6235 6.94287 10.8066 6.73779 10.8066 6.49609C10.8066 6.25439 10.6235 6.04932 10.3525 6.04932H8.74121C8.47021 6.04932 8.28711 6.25439 8.28711 6.49609C8.28711 6.73779 8.47021 6.94287 8.74121 6.94287ZM8.74121 8.98633H10.3525C10.6235 8.98633 10.8066 8.78125 10.8066 8.53955C10.8066 8.29785 10.6235 8.09277 10.3525 8.09277H8.74121C8.47021 8.09277 8.28711 8.29785 8.28711 8.53955C8.28711 8.78125 8.47021 8.98633 8.74121 8.98633Z" fill="white"/>
</svg>
