<svg width="17" height="14" viewBox="0 0 17 14" fill="none" xmlns="http://www.w3.org/2000/svg">
<path opacity="0.3" d="M3.91455 4.84424C7.2251 4.84424 8.98291 2.07568 12.0151 2.07568C12.7329 2.07568 13.3481 2.23682 14.0806 2.6543C14.4248 2.85205 14.7617 2.72754 14.9448 2.47119C15.1646 2.16357 15.1206 1.70947 14.6738 1.4458C13.8389 0.969727 12.9673 0.735352 12.0151 0.735352C8.66064 0.735352 6.91748 3.50391 3.91455 3.50391C3.2041 3.50391 2.58154 3.34277 1.85645 2.91797C1.51221 2.72754 1.16064 2.85205 0.984863 3.11572C0.779785 3.43066 0.82373 3.87744 1.26318 4.12646C2.09814 4.60986 2.96973 4.84424 3.91455 4.84424ZM13.5386 13.6846C15.3403 13.6846 16.7759 12.2783 16.7759 10.5205C16.7759 9.55371 16.2925 8.60156 15.8896 7.84717L14.2637 4.81494C14.0806 4.4707 13.8828 4.31689 13.5386 4.31689C13.1943 4.31689 13.0039 4.47803 12.8208 4.81494L11.1948 7.84717C10.792 8.60156 10.3086 9.55371 10.3086 10.5205C10.3086 12.2783 11.7515 13.6846 13.5386 13.6846ZM3.9292 8.77002C6.76367 8.77002 8.49219 6.66797 10.9092 6.16992C11.1729 5.67188 11.4512 5.17383 11.7148 4.67578C8.48486 4.85889 6.85156 7.42969 3.9292 7.42969C3.21875 7.42969 2.59619 7.26855 1.86377 6.85107C1.51953 6.65332 1.17529 6.77783 0.999512 7.0415C0.794434 7.35645 0.838379 7.80322 1.27051 8.05225C2.10547 8.53564 2.97705 8.77002 3.9292 8.77002ZM13.5386 12.5713C12.3667 12.5713 11.4219 11.6631 11.4219 10.5205C11.4219 9.81738 11.7881 9.12891 12.1909 8.37451L13.4727 5.98682C13.5093 5.91357 13.5825 5.91357 13.6191 5.98682L14.8936 8.37451C15.2891 9.12891 15.6626 9.81738 15.6626 10.5205C15.6626 11.6631 14.7251 12.5713 13.5386 12.5713ZM3.91455 12.6958C6.10449 12.6958 7.62793 11.4507 9.3125 10.6523C9.26123 10.2495 9.34912 9.63428 9.50293 9.13623C7.57666 9.92725 6.0752 11.3555 3.91455 11.3555C3.2041 11.3555 2.58154 11.1943 1.85645 10.7769C1.51221 10.5791 1.16064 10.7036 0.984863 10.9746C0.779785 11.2822 0.82373 11.729 1.26318 11.9854C2.09814 12.4614 2.96973 12.6958 3.91455 12.6958Z" fill="white"/>
</svg>
