<svg width="27" height="27" viewBox="0 0 27 27" fill="none" xmlns="http://www.w3.org/2000/svg">
<path d="M24.75 13.5C24.75 7.29 19.71 2.25 13.5 2.25C7.29 2.25 2.25 7.29 2.25 13.5C2.25 19.71 7.29 24.75 13.5 24.75" stroke="white" stroke-width="1.5" stroke-linecap="round" stroke-linejoin="round"/>
<path d="M9.00002 3.375H10.125C7.93127 9.945 7.93127 17.055 10.125 23.625H9.00002" stroke="white" stroke-width="1.5" stroke-linecap="round" stroke-linejoin="round"/>
<path d="M16.875 3.375C17.9663 6.66 18.5175 10.08 18.5175 13.5" stroke="white" stroke-width="1.5" stroke-linecap="round" stroke-linejoin="round"/>
<path d="M3.375 18V16.875C6.66 17.9663 10.08 18.5175 13.5 18.5175" stroke="white" stroke-width="1.5" stroke-linecap="round" stroke-linejoin="round"/>
<path d="M3.375 10.125C9.945 7.93122 17.055 7.93122 23.625 10.125" stroke="white" stroke-width="1.5" stroke-linecap="round" stroke-linejoin="round"/>
<path d="M20.475 24.075C22.4632 24.075 24.075 22.4632 24.075 20.475C24.075 18.4868 22.4632 16.875 20.475 16.875C18.4868 16.875 16.875 18.4868 16.875 20.475C16.875 22.4632 18.4868 24.075 20.475 24.075Z" stroke="white" stroke-width="1.5" stroke-linecap="round" stroke-linejoin="round"/>
<path d="M24.75 24.75L23.625 23.625" stroke="white" stroke-width="1.5" stroke-linecap="round" stroke-linejoin="round"/>
</svg>
