<svg width="15" height="16" viewBox="0 0 15 16" fill="none" xmlns="http://www.w3.org/2000/svg">
<mask id="mask0_102_776" style="mask-type:alpha" maskUnits="userSpaceOnUse" x="0" y="0" width="15" height="16">
<rect x="0.83073" width="13.9583" height="16" fill="#D9D9D9"/>
</mask>
<g mask="url(#mask0_102_776)">
<path d="M8.44965 15.3333H6.93749L7.22829 15.1253C7.42216 14.9862 7.63308 14.8307 7.86107 14.6587C8.08867 14.4862 8.2994 14.3307 8.49327 14.192L8.78406 13.9833C9.56922 13.9167 10.2939 13.6444 10.9581 13.1667C11.6219 12.6889 12.1476 12.05 12.5354 11.25C11.7017 11.1611 10.9117 10.9196 10.1654 10.5253C9.41897 10.1307 8.75014 9.59444 8.15885 8.91667C7.56756 8.23889 7.09743 7.47222 6.74847 6.61667C6.39952 5.76111 6.19111 4.85556 6.12326 3.9C5.37687 4.37778 4.79295 5.036 4.37149 5.87467C3.94963 6.71378 3.73871 7.62222 3.73871 8.6V8.8L3.56423 8.89133C3.44791 8.95267 3.31957 9.01667 3.17921 9.08333C3.03847 9.15 2.90993 9.21378 2.79361 9.27467L2.61913 9.36667C2.59975 9.24444 2.58773 9.11667 2.58307 8.98333C2.57803 8.85 2.57551 8.72222 2.57551 8.6C2.57551 6.97778 3.02625 5.54711 3.92773 4.308C4.8292 3.06933 5.97786 2.3 7.37369 2C7.19921 3.1 7.25252 4.17489 7.53363 5.22467C7.81474 6.27489 8.2994 7.19444 8.98762 7.98333C9.67585 8.77222 10.4781 9.32778 11.3943 9.65C12.3101 9.97222 13.2478 10.0333 14.2075 9.83333C13.9554 11.4333 13.2866 12.75 12.2009 13.7833C11.1153 14.8167 9.86487 15.3333 8.44965 15.3333ZM4.32031 14H6.93749C7.17983 14 7.38571 13.9027 7.55515 13.708C7.72498 13.5138 7.80989 13.2778 7.80989 13C7.80989 12.7222 7.7275 12.4862 7.56271 12.292C7.39792 12.0973 7.19921 12 6.96657 12H6.2105L5.9197 11.2C5.78399 10.8333 5.57074 10.5418 5.27994 10.3253C4.98914 10.1084 4.66926 10 4.32031 10C3.83564 10 3.42368 10.1918 3.08441 10.5753C2.74515 10.9584 2.57551 11.4333 2.57551 12C2.57551 12.5556 2.74515 13.0278 3.08441 13.4167C3.42368 13.8056 3.83564 14 4.32031 14ZM4.32031 15.3333C3.51576 15.3333 2.83006 15.0084 2.2632 14.3587C1.69594 13.7084 1.41232 12.9222 1.41232 12C1.41232 11.0778 1.69594 10.2916 2.2632 9.64133C2.83006 8.99156 3.51576 8.66667 4.32031 8.66667C4.9019 8.66667 5.43271 8.84711 5.91272 9.208C6.39234 9.56933 6.74847 10.0556 6.98111 10.6667C7.53363 10.6889 8.00376 10.9249 8.39149 11.3747C8.77922 11.8249 8.97308 12.3667 8.97308 13C8.97308 13.6444 8.77437 14.1944 8.37695 14.65C7.97952 15.1056 7.4997 15.3333 6.93749 15.3333H4.32031Z" fill="white"/>
</g>
</svg>
