<svg width="15" height="16" viewBox="0 0 15 16" fill="none" xmlns="http://www.w3.org/2000/svg">
<mask id="mask0_102_792" style="mask-type:alpha" maskUnits="userSpaceOnUse" x="0" y="0" width="15" height="16">
<rect x="0.0546875" width="13.9583" height="16" fill="#D9D9D9"/>
</mask>
<g mask="url(#mask0_102_792)">
<mask id="mask1_102_792" style="mask-type:alpha" maskUnits="userSpaceOnUse" x="0" y="0" width="15" height="17">
<rect x="0.0563965" y="0.131836" width="13.9583" height="16" fill="#D9D9D9"/>
</mask>
<g mask="url(#mask1_102_792)">
<path d="M10.0599 10.1818C9.91447 10.1152 9.80784 9.99561 9.73999 9.82317C9.67214 9.65117 9.66729 9.48184 9.72545 9.31517C9.7933 9.12628 9.84177 8.92895 9.87085 8.72317C9.89993 8.51784 9.91447 8.28184 9.91447 8.01517C9.91447 7.18184 9.63821 6.44006 9.08569 5.78984C8.53318 5.14006 7.87888 4.81517 7.1228 4.81517C6.92894 4.81517 6.73759 4.83184 6.54877 4.86517C6.35955 4.8985 6.17286 4.95961 5.98869 5.0485C5.8336 5.12628 5.68335 5.12628 5.53795 5.0485C5.39255 4.97073 5.29077 4.84295 5.23261 4.66517C5.17445 4.48739 5.17697 4.31517 5.24017 4.1485C5.30299 3.98184 5.41194 3.86517 5.56703 3.7985C5.81906 3.68739 6.07108 3.60672 6.32311 3.5565C6.57513 3.50673 6.8417 3.48184 7.1228 3.48184C8.21814 3.48184 9.15103 3.92628 9.92145 4.81517C10.6923 5.70406 11.0777 6.77072 11.0777 8.01517C11.0777 8.37072 11.0608 8.68739 11.0271 8.96517C10.9929 9.24295 10.9274 9.52628 10.8305 9.81517C10.7723 9.98184 10.6682 10.0985 10.5182 10.1652C10.3677 10.2318 10.215 10.2374 10.0599 10.1818ZM7.03556 12.7985C5.90145 12.7985 4.93949 12.3456 4.14968 11.4398C3.35948 10.5345 2.96438 9.43184 2.96438 8.13184C2.96438 7.67628 3.02487 7.21806 3.14584 6.75717C3.2672 6.29584 3.45389 5.85961 3.70592 5.4485C3.75439 5.35961 3.81991 5.29006 3.9025 5.23984C3.9847 5.19006 4.06942 5.16517 4.15666 5.16517C4.26328 5.15406 4.36758 5.18184 4.46956 5.2485C4.57114 5.31517 4.64617 5.40406 4.69463 5.51517C5.23746 6.6485 5.90145 7.66228 6.6866 8.5565C7.47176 9.45117 8.3587 10.1985 9.34741 10.7985C9.43465 10.8541 9.50483 10.9289 9.55795 11.0232C9.61146 11.1178 9.64306 11.2263 9.65275 11.3485C9.66244 11.4596 9.64306 11.5652 9.59459 11.6652C9.54612 11.7652 9.48312 11.8485 9.40557 11.9152C9.04692 12.2041 8.66656 12.4236 8.26448 12.5738C7.86201 12.7236 7.45237 12.7985 7.03556 12.7985ZM7.03556 11.4652C7.17127 11.4652 7.30465 11.4567 7.4357 11.4398C7.56637 11.4234 7.7044 11.3874 7.8498 11.3318C7.1228 10.7985 6.45881 10.1874 5.85783 9.4985C5.25684 8.80961 4.71887 8.05406 4.2439 7.23184C4.20512 7.38739 4.17604 7.53739 4.15666 7.68184C4.13727 7.82628 4.12758 7.97628 4.12758 8.13184C4.12758 9.07628 4.41605 9.86517 4.99299 10.4985C5.56955 11.1318 6.25041 11.4541 7.03556 11.4652ZM7.03556 2.13184C6.87078 2.13184 6.73274 2.06784 6.62147 1.93984C6.5098 1.81228 6.45397 1.65406 6.45397 1.46517V0.798503C6.45397 0.609614 6.5098 0.451169 6.62147 0.323169C6.73274 0.195614 6.87078 0.131836 7.03556 0.131836C7.20035 0.131836 7.33858 0.195614 7.45024 0.323169C7.56152 0.451169 7.61716 0.609614 7.61716 0.798503V1.46517C7.61716 1.65406 7.56152 1.81228 7.45024 1.93984C7.33858 2.06784 7.20035 2.13184 7.03556 2.13184ZM7.03556 16.1318C6.87078 16.1318 6.73274 16.0678 6.62147 15.9398C6.5098 15.8123 6.45397 15.6541 6.45397 15.4652V14.7985C6.45397 14.6096 6.5098 14.4514 6.62147 14.3238C6.73274 14.1958 6.87078 14.1318 7.03556 14.1318C7.20035 14.1318 7.33858 14.1958 7.45024 14.3238C7.56152 14.4514 7.61716 14.6096 7.61716 14.7985V15.4652C7.61716 15.6541 7.56152 15.8123 7.45024 15.9398C7.33858 16.0678 7.20035 16.1318 7.03556 16.1318ZM10.7287 3.88184C10.6124 3.7485 10.5542 3.59006 10.5542 3.4065C10.5542 3.22339 10.6124 3.06517 10.7287 2.93184L11.1358 2.46517C11.2521 2.33184 11.3927 2.26517 11.5575 2.26517C11.7223 2.26517 11.8628 2.33184 11.9791 2.46517C12.0955 2.5985 12.1513 2.75672 12.1466 2.93984C12.1416 3.12339 12.0809 3.28184 11.9646 3.41517L11.5575 3.88184C11.4412 4.01517 11.3029 4.08184 11.1428 4.08184C10.9831 4.08184 10.845 4.01517 10.7287 3.88184ZM2.10653 13.7818C1.99021 13.6485 1.93205 13.4903 1.93205 13.3072C1.93205 13.1236 1.99021 12.9652 2.10653 12.8318L2.51364 12.3652C2.62027 12.2429 2.75113 12.1818 2.90622 12.1818C3.06132 12.1818 3.19702 12.2429 3.31334 12.3652C3.42966 12.4874 3.49267 12.6429 3.50236 12.8318C3.51205 13.0207 3.45874 13.1818 3.34242 13.3152L2.9353 13.7818C2.81898 13.9152 2.68095 13.9818 2.52121 13.9818C2.36107 13.9818 2.22285 13.9152 2.10653 13.7818ZM12.8515 8.7985C12.6867 8.7985 12.5487 8.7345 12.4374 8.6065C12.3258 8.47895 12.2699 8.32073 12.2699 8.13184C12.2699 7.94295 12.3258 7.7845 12.4374 7.6565C12.5487 7.52895 12.6867 7.46517 12.8515 7.46517H13.4331C13.5979 7.46517 13.736 7.52895 13.8472 7.6565C13.9589 7.7845 14.0147 7.94295 14.0147 8.13184C14.0147 8.32073 13.9589 8.47895 13.8472 8.6065C13.736 8.7345 13.5979 8.7985 13.4331 8.7985H12.8515ZM0.637994 8.7985C0.473208 8.7985 0.335175 8.7345 0.223896 8.6065C0.11223 8.47895 0.0563965 8.32073 0.0563965 8.13184C0.0563965 7.94295 0.11223 7.7845 0.223896 7.6565C0.335175 7.52895 0.473208 7.46517 0.637994 7.46517H1.21959C1.38438 7.46517 1.5226 7.52895 1.63427 7.6565C1.74555 7.7845 1.80119 7.94295 1.80119 8.13184C1.80119 8.32073 1.74555 8.47895 1.63427 8.6065C1.5226 8.7345 1.38438 8.7985 1.21959 8.7985H0.637994ZM11.1358 13.7818L10.7287 13.3152C10.6221 13.1929 10.5688 13.0429 10.5688 12.8652C10.5688 12.6874 10.6221 12.5318 10.7287 12.3985C10.8353 12.2652 10.971 12.1929 11.1358 12.1818C11.3006 12.1707 11.4412 12.2318 11.5575 12.3652L11.9646 12.8318C12.0809 12.9652 12.1368 13.1207 12.1321 13.2985C12.1271 13.4763 12.0712 13.6318 11.9646 13.7652C11.858 13.8985 11.7223 13.9678 11.5575 13.9732C11.3927 13.9789 11.2521 13.9152 11.1358 13.7818ZM2.51364 3.88184L2.10653 3.41517C1.99021 3.28184 1.93437 3.12895 1.93903 2.9565C1.94407 2.7845 1.9999 2.63184 2.10653 2.4985C2.21315 2.36517 2.34886 2.29295 2.51364 2.28184C2.67843 2.27072 2.81898 2.33184 2.9353 2.46517L3.34242 2.93184C3.45874 3.06517 3.5169 3.22339 3.5169 3.4065C3.5169 3.59006 3.45874 3.7485 3.34242 3.88184C3.2261 4.01517 3.08807 4.08184 2.92832 4.08184C2.76819 4.08184 2.62996 4.01517 2.51364 3.88184Z" fill="white"/>
</g>
</g>
</svg>
