<svg width="17" height="17" viewBox="0 0 17 17" fill="none" xmlns="http://www.w3.org/2000/svg">
<path opacity="0.3" d="M9.19531 1.28516C9.19531 0.882324 8.8584 0.54541 8.46289 0.54541C8.06006 0.54541 7.72314 0.882324 7.72314 1.28516V2.7793C7.72314 3.1748 8.06006 3.51172 8.46289 3.51172C8.8584 3.51172 9.19531 3.1748 9.19531 2.7793V1.28516ZM12.125 4.01709C11.8467 4.29541 11.8467 4.76416 12.1323 5.0498C12.4106 5.32812 12.8867 5.33545 13.1724 5.04248L14.2271 3.98779C14.5127 3.70215 14.5054 3.22607 14.2271 2.94043C13.9487 2.66211 13.4727 2.66943 13.1943 2.94775L12.125 4.01709ZM3.74609 5.04248C4.02441 5.32812 4.50049 5.32812 4.77881 5.0498C5.06445 4.77881 5.06445 4.28809 4.79346 4.01709L3.73145 2.94775C3.46045 2.67676 2.97705 2.66211 2.69873 2.94043C2.42041 3.22607 2.41309 3.70215 2.69141 3.98047L3.74609 5.04248ZM8.45557 4.85938C6.35352 4.85938 4.61035 6.60254 4.61035 8.71191C4.61035 10.8213 6.35352 12.5645 8.45557 12.5645C10.5576 12.5645 12.3008 10.8213 12.3008 8.71191C12.3008 6.60254 10.5576 4.85938 8.45557 4.85938ZM15.875 9.44434C16.2705 9.44434 16.6074 9.10742 16.6074 8.71191C16.6074 8.30908 16.2705 7.97949 15.875 7.97949H14.3882C13.9927 7.97949 13.6558 8.30908 13.6558 8.71191C13.6558 9.10742 13.9927 9.44434 14.3882 9.44434H15.875ZM1.04346 7.97949C0.647949 7.97949 0.311035 8.30908 0.311035 8.71191C0.311035 9.10742 0.647949 9.44434 1.04346 9.44434H2.53027C2.93311 9.44434 3.27002 9.10742 3.27002 8.71191C3.27002 8.30908 2.93311 7.97949 2.53027 7.97949H1.04346ZM13.165 12.3813C12.8867 12.103 12.4106 12.103 12.125 12.3813C11.8467 12.667 11.8467 13.1357 12.1323 13.4214L13.1943 14.4834C13.48 14.7617 13.9487 14.7544 14.2344 14.4688C14.5127 14.1904 14.5127 13.7217 14.2271 13.436L13.165 12.3813ZM2.69141 13.4287C2.40576 13.7144 2.40576 14.1904 2.67676 14.4688C2.9624 14.7471 3.43848 14.7544 3.7168 14.4761L4.77881 13.4214C5.06445 13.1357 5.06445 12.667 4.79346 12.3887C4.50781 12.103 4.03174 12.103 3.74609 12.3813L2.69141 13.4287ZM9.19531 14.6445C9.19531 14.249 8.8584 13.9121 8.46289 13.9121C8.06006 13.9121 7.72314 14.249 7.72314 14.6445V16.1387C7.72314 16.5342 8.06006 16.8784 8.46289 16.8784C8.8584 16.8784 9.19531 16.5342 9.19531 16.1387V14.6445Z" fill="white"/>
</svg>
