<svg width="17" height="14" viewBox="0 0 17 14" fill="none" xmlns="http://www.w3.org/2000/svg">
<path opacity="0.3" d="M1.62207 5.2251C2.67676 4.89551 3.76807 4.72705 4.80811 4.72705C6.14844 4.72705 7.13721 4.93945 8.41162 4.93945C9.75195 4.93945 10.6089 4.02393 10.6089 2.82275C10.6089 1.59229 9.67871 0.713379 8.50684 0.713379C7.66455 0.713379 6.91016 1.2334 6.58789 1.94385C6.44873 2.21484 6.50732 2.52979 6.78564 2.68359C7.04932 2.82275 7.37891 2.73486 7.55469 2.40527C7.7085 2.06104 8.08203 1.79004 8.50684 1.79004C9.08545 1.79004 9.53223 2.18555 9.53223 2.82275C9.53223 3.45264 9.09277 3.86279 8.41162 3.86279C7.21045 3.86279 6.19971 3.65039 4.80811 3.65039C3.61426 3.65039 2.39844 3.85547 1.29248 4.19238C0.955566 4.29492 0.816406 4.58789 0.896973 4.88086C0.977539 5.1665 1.25586 5.32764 1.62207 5.2251ZM13.1064 8.7334C14.8423 8.7334 16.0728 7.62012 16.0728 6.07471C16.0728 4.55127 14.9082 3.43066 13.436 3.43066C12.1323 3.43066 11.1216 4.32422 10.9092 5.51807C10.8433 5.84766 11.0117 6.1333 11.3047 6.19189C11.605 6.25781 11.8833 6.08203 11.9712 5.7085C12.103 4.99805 12.7183 4.50732 13.436 4.50732C14.3076 4.50732 14.9961 5.15186 14.9961 6.07471C14.9961 7.01221 14.2563 7.65674 13.1064 7.65674C10.8726 7.65674 8.44824 6.38232 5.51123 6.38232C3.99512 6.38232 2.61084 6.62402 1.29248 7.07812C0.962891 7.19531 0.816406 7.48096 0.896973 7.7666C0.984863 8.05957 1.27051 8.22803 1.62207 8.11084C2.83057 7.66406 4.07568 7.46631 5.51123 7.46631C8.41895 7.46631 10.6089 8.7334 13.1064 8.7334ZM8.41895 13.9702C9.5835 13.9702 10.4844 13.0986 10.4844 11.8755C10.4844 10.103 8.67529 9.12158 5.37939 9.12158C4.02441 9.12158 2.54492 9.37793 1.29248 9.81006C0.962891 9.91992 0.816406 10.2129 0.896973 10.4985C0.984863 10.7915 1.27051 10.96 1.62207 10.8354C2.78662 10.4253 4.07568 10.1982 5.37939 10.1982C7.99414 10.1982 9.40039 10.8501 9.40039 11.8755C9.40039 12.5054 8.96826 12.8862 8.41895 12.8862C7.8916 12.8862 7.55469 12.5347 7.44482 11.9707C7.37158 11.6704 7.12988 11.458 6.79297 11.5093C6.44141 11.5605 6.30225 11.8755 6.37549 12.2051C6.55859 13.1938 7.32764 13.9702 8.41895 13.9702Z" fill="white"/>
</svg>
